<svg width="30" height="30" viewBox="0 0 30 30" fill="none" xmlns="http://www.w3.org/2000/svg">
<mask id="mask0_205_566" style="mask-type:alpha" maskUnits="userSpaceOnUse" x="0" y="0" width="30" height="30">
<path d="M15 15C23.2843 15 30 21.7157 30 30L15 30L15 15Z" fill="#D9D9D9"/>
<path d="M15 0C23.2843 0 30 6.71573 30 15L15 15L15 0Z" fill="#D9D9D9"/>
<path d="M15 15C15 6.71573 8.28427 6.6012e-07 -2.98004e-07 2.98003e-07L-9.53674e-07 15L15 15Z" fill="#D9D9D9"/>
<path d="M15 30C15 21.7157 8.28427 15 1.78873e-07 15L0 30L15 30Z" fill="#D9D9D9"/>
</mask>
<g mask="url(#mask0_205_566)">
<rect width="30" height="30" fill="url(#paint0_linear_205_566)"/>
</g>
<defs>
<linearGradient id="paint0_linear_205_566" x1="30" y1="-1.78814e-06" x2="1.78814e-06" y2="30" gradientUnits="userSpaceOnUse">
<stop stop-color="#D9D9D9"/>
<stop offset="1" stop-color="white"/>
</linearGradient>
</defs>
</svg>
