<svg width="120" height="35" viewBox="0 0 120 35" fill="none" xmlns="http://www.w3.org/2000/svg">
<path d="M34.9999 0V0C30.1674 -4.22468e-07 26.2499 3.91749 26.2499 8.74997V8.74997L34.9999 8.74997L34.9999 0Z" fill="white" fill-opacity="0.6"/>
<path d="M26.25 17.5V17.5C31.0825 17.5 35 13.5825 35 8.75003V8.75003L26.25 8.75003L26.25 17.5Z" fill="white" fill-opacity="0.8"/>
<path d="M26.25 26.25V26.25C21.4175 26.25 17.5 30.1675 17.5 35V35L26.25 35L26.25 26.25Z" fill="white" fill-opacity="0.4"/>
<path d="M26.25 17.5V17.5C21.4175 17.5 17.5 21.4175 17.5 26.25V26.25L26.25 26.25L26.25 17.5Z" fill="white" fill-opacity="0.8"/>
<path d="M26.25 8.75V8.75C26.25 3.91753 22.3325 3.25962e-05 17.5 3.28074e-05V3.28074e-05L17.5 8.75L26.25 8.75Z" fill="white" fill-opacity="0.6"/>
<path d="M17.5 8.75V8.75C17.5 13.5825 21.4175 17.5 26.25 17.5V17.5L26.25 8.75L17.5 8.75Z" fill="white" fill-opacity="0.4"/>
<path d="M35 35V35C35 30.1675 31.0825 26.25 26.25 26.25V26.25L26.25 35L35 35Z" fill="white" fill-opacity="0.8"/>
<path d="M35 26.25V26.25C35 21.4175 31.0825 17.5 26.25 17.5V17.5L26.25 26.25L35 26.25Z" fill="white" fill-opacity="0.6"/>
<path d="M8.75 8.75V8.75C13.5825 8.75 17.5 4.83249 17.5 1.23978e-05V1.23978e-05L8.75 1.23978e-05L8.75 8.75Z" fill="white" fill-opacity="0.8"/>
<path d="M8.75 17.5V17.5C13.5825 17.5 17.5 13.5825 17.5 8.75001V8.75001L8.75 8.75001L8.75 17.5Z" fill="white" fill-opacity="0.6"/>
<path d="M17.5 26.25V26.25C17.5 21.4175 13.5825 17.5 8.75003 17.5V17.5L8.75003 26.25L17.5 26.25Z" fill="white" fill-opacity="0.8"/>
<path d="M8.75 35V35C13.5825 35 17.5 31.0825 17.5 26.25V26.25H8.75L8.75 35Z" fill="white" fill-opacity="0.8"/>
<path d="M6.10352e-05 0.000244141V0.000244141C6.08239e-05 4.83272 3.91755 8.75023 8.75003 8.75023V8.75023L8.75003 0.000244523L6.10352e-05 0.000244141Z" fill="white" fill-opacity="0.4"/>
<path d="M0 8.75V8.75C-2.11234e-07 13.5825 3.91749 17.5 8.74997 17.5V17.5L8.74997 8.75L0 8.75Z" fill="white" fill-opacity="0.8"/>
<path d="M8.75 17.5V17.5C3.91753 17.5 3.30361e-05 21.4175 3.26137e-05 26.25V26.25L8.75 26.25L8.75 17.5Z" fill="white" fill-opacity="0.6"/>
<path d="M6.10352e-05 26.25V26.25C6.10928e-05 31.0825 3.91755 35 8.75003 35V35L8.75003 26.25L6.10352e-05 26.25Z" fill="white" fill-opacity="0.4"/>
<path d="M43.34 12.3286C42.8281 12.3286 42.3786 12.2302 41.9914 12.0333C41.6042 11.8299 41.3056 11.5477 41.0956 11.1867C40.8856 10.8258 40.7806 10.4091 40.7806 9.93659V7.6627C40.7806 7.1902 40.8856 6.77348 41.0956 6.41254C41.3056 6.05161 41.6042 5.7727 41.9914 5.57583C42.3786 5.37895 42.8281 5.28052 43.34 5.28052C43.8453 5.28052 44.2883 5.37567 44.6689 5.56599C45.0561 5.74973 45.3547 6.01551 45.5647 6.36333C45.7812 6.70457 45.8895 7.1016 45.8895 7.55442C45.8895 7.61348 45.8502 7.64957 45.7714 7.6627L44.6197 7.7316H44.6C44.5344 7.7316 44.5016 7.69551 44.5016 7.62332C44.5016 7.27551 44.3933 6.99661 44.1767 6.78661C43.9667 6.57661 43.6878 6.47161 43.34 6.47161C42.9856 6.47161 42.7002 6.57661 42.4836 6.78661C42.2736 6.99661 42.1686 7.27551 42.1686 7.62332V9.99566C42.1686 10.3369 42.2736 10.6125 42.4836 10.8225C42.7002 11.0325 42.9856 11.1375 43.34 11.1375C43.6878 11.1375 43.9667 11.0325 44.1767 10.8225C44.3933 10.6125 44.5016 10.3369 44.5016 9.99566C44.5016 9.92347 44.5409 9.88738 44.6197 9.88738L45.7714 9.93659C45.8042 9.93659 45.8305 9.94644 45.8502 9.96613C45.8764 9.98581 45.8895 10.0088 45.8895 10.035C45.8895 10.4878 45.7812 10.8882 45.5647 11.236C45.3547 11.5838 45.0561 11.8528 44.6689 12.0431C44.2883 12.2335 43.8453 12.3286 43.34 12.3286Z" fill="white"/>
<path d="M51.7209 12.3581C51.2091 12.3581 50.7562 12.2531 50.3625 12.0431C49.9753 11.8331 49.6734 11.5411 49.4569 11.1671C49.2403 10.7864 49.132 10.35 49.132 9.85784V7.75129C49.132 7.26567 49.2403 6.83582 49.4569 6.46176C49.6734 6.0877 49.9753 5.79895 50.3625 5.59552C50.7562 5.38552 51.2091 5.28052 51.7209 5.28052C52.2394 5.28052 52.6922 5.38552 53.0794 5.59552C53.4731 5.79895 53.7783 6.0877 53.9948 6.46176C54.2114 6.83582 54.3197 7.26567 54.3197 7.75129V9.85784C54.3197 10.35 54.2114 10.7864 53.9948 11.1671C53.7783 11.5477 53.4731 11.843 53.0794 12.053C52.6922 12.2564 52.2394 12.3581 51.7209 12.3581ZM51.7209 11.1671C52.0819 11.1671 52.3739 11.0522 52.597 10.8225C52.8201 10.5928 52.9317 10.2877 52.9317 9.90706V7.74145C52.9317 7.36082 52.8201 7.05567 52.597 6.82598C52.3805 6.58973 52.0884 6.47161 51.7209 6.47161C51.36 6.47161 51.068 6.58973 50.8448 6.82598C50.6283 7.05567 50.52 7.36082 50.52 7.74145V9.90706C50.52 10.2877 50.6283 10.5928 50.8448 10.8225C51.068 11.0522 51.36 11.1671 51.7209 11.1671Z" fill="white"/>
<path d="M61.7034 5.47739C61.7034 5.44458 61.7132 5.41833 61.7329 5.39864C61.7592 5.37239 61.7887 5.35927 61.8215 5.35927H62.9732C63.006 5.35927 63.0323 5.37239 63.052 5.39864C63.0782 5.41833 63.0913 5.44458 63.0913 5.47739V12.1317C63.0913 12.1646 63.0782 12.1941 63.052 12.2203C63.0323 12.24 63.006 12.2499 62.9732 12.2499H61.8609C61.7952 12.2499 61.7493 12.2236 61.7231 12.1711L59.1735 7.95801C59.1604 7.93832 59.1473 7.93176 59.1342 7.93832C59.121 7.93832 59.1145 7.95145 59.1145 7.9777L59.1342 12.1317C59.1342 12.1646 59.121 12.1941 59.0948 12.2203C59.0751 12.24 59.0489 12.2499 59.016 12.2499H57.8643C57.8315 12.2499 57.802 12.24 57.7757 12.2203C57.756 12.1941 57.7462 12.1646 57.7462 12.1317V5.47739C57.7462 5.44458 57.756 5.41833 57.7757 5.39864C57.802 5.37239 57.8315 5.35927 57.8643 5.35927H58.9767C59.0423 5.35927 59.0882 5.38552 59.1145 5.43802L61.6542 9.63144C61.6673 9.65113 61.6804 9.66097 61.6935 9.66097C61.7067 9.65441 61.7132 9.638 61.7132 9.61175L61.7034 5.47739Z" fill="white"/>
<path d="M69.0176 12.3286C68.4926 12.3286 68.0333 12.2466 67.6395 12.0825C67.2458 11.9119 66.9406 11.6724 66.7241 11.3639C66.5141 11.0489 66.4091 10.6847 66.4091 10.2713V10.0547C66.4091 10.0219 66.4189 9.99566 66.4386 9.97597C66.4648 9.94972 66.4944 9.93659 66.5272 9.93659H67.6494C67.6822 9.93659 67.7084 9.94972 67.7281 9.97597C67.7544 9.99566 67.7675 10.0219 67.7675 10.0547V10.2024C67.7675 10.4649 67.8889 10.688 68.1317 10.8717C68.3745 11.0489 68.7026 11.1375 69.1161 11.1375C69.4639 11.1375 69.7231 11.0653 69.8937 10.921C70.0644 10.77 70.1497 10.5863 70.1497 10.3697C70.1497 10.2122 70.0972 10.081 69.9922 9.97597C69.8872 9.86441 69.7428 9.76925 69.559 9.6905C69.3819 9.60519 69.0964 9.49035 68.7026 9.34597C68.263 9.19503 67.8889 9.04082 67.5805 8.88332C67.2786 8.72582 67.0226 8.51254 66.8126 8.24348C66.6092 7.96785 66.5075 7.62988 66.5075 7.22957C66.5075 6.83582 66.6092 6.49129 66.8126 6.19598C67.0161 5.90067 67.2983 5.67427 67.6592 5.51677C68.0201 5.35927 68.4369 5.28052 68.9094 5.28052C69.4081 5.28052 69.8511 5.36911 70.2383 5.5463C70.632 5.72348 70.9372 5.97286 71.1537 6.29442C71.3768 6.60942 71.4884 6.97692 71.4884 7.39692V7.54457C71.4884 7.57738 71.4753 7.60692 71.449 7.63316C71.4293 7.65285 71.4031 7.6627 71.3703 7.6627H70.2383C70.2054 7.6627 70.1759 7.65285 70.1497 7.63316C70.13 7.60692 70.1201 7.57738 70.1201 7.54457V7.46582C70.1201 7.1902 70.0053 6.95723 69.7756 6.76692C69.5525 6.57004 69.244 6.47161 68.8503 6.47161C68.5419 6.47161 68.299 6.53723 68.1219 6.66848C67.9512 6.79973 67.8659 6.9802 67.8659 7.20989C67.8659 7.37395 67.9151 7.51176 68.0136 7.62332C68.1186 7.73488 68.2695 7.8366 68.4664 7.92848C68.6698 8.01379 68.9815 8.13191 69.4015 8.28285C69.8675 8.45347 70.2317 8.60441 70.4942 8.73566C70.7633 8.86691 71.0028 9.06378 71.2128 9.32628C71.4293 9.58222 71.5376 9.91691 71.5376 10.3303C71.5376 10.9472 71.3112 11.4361 70.8584 11.7971C70.4056 12.1514 69.792 12.3286 69.0176 12.3286Z" fill="white"/>
<path d="M77.323 12.3581C76.8112 12.3581 76.3584 12.2531 75.9646 12.0431C75.5774 11.8331 75.2755 11.5411 75.059 11.1671C74.8424 10.7864 74.7341 10.35 74.7341 9.85784V7.75129C74.7341 7.26567 74.8424 6.83582 75.059 6.46176C75.2755 6.0877 75.5774 5.79895 75.9646 5.59552C76.3584 5.38552 76.8112 5.28052 77.323 5.28052C77.8415 5.28052 78.2943 5.38552 78.6815 5.59552C79.0752 5.79895 79.3804 6.0877 79.5969 6.46176C79.8135 6.83582 79.9218 7.26567 79.9218 7.75129V9.85784C79.9218 10.35 79.8135 10.7864 79.5969 11.1671C79.3804 11.5477 79.0752 11.843 78.6815 12.053C78.2943 12.2564 77.8415 12.3581 77.323 12.3581ZM77.323 11.1671C77.684 11.1671 77.976 11.0522 78.1991 10.8225C78.4223 10.5928 78.5338 10.2877 78.5338 9.90706V7.74145C78.5338 7.36082 78.4223 7.05567 78.1991 6.82598C77.9826 6.58973 77.6905 6.47161 77.323 6.47161C76.9621 6.47161 76.6701 6.58973 76.4469 6.82598C76.2304 7.05567 76.1221 7.36082 76.1221 7.74145V9.90706C76.1221 10.2877 76.2304 10.5928 76.4469 10.8225C76.6701 11.0522 76.9621 11.1671 77.323 11.1671Z" fill="white"/>
<path d="M87.1283 12.2499C87.0627 12.2499 87.0167 12.2203 86.9905 12.1613L85.76 9.43457C85.7469 9.40832 85.7272 9.39519 85.701 9.39519H84.7855C84.7527 9.39519 84.7363 9.4116 84.7363 9.44441V12.1317C84.7363 12.1646 84.7232 12.1941 84.6969 12.2203C84.6772 12.24 84.651 12.2499 84.6182 12.2499H83.4664C83.4336 12.2499 83.4041 12.24 83.3778 12.2203C83.3582 12.1941 83.3483 12.1646 83.3483 12.1317V5.47739C83.3483 5.44458 83.3582 5.41833 83.3778 5.39864C83.4041 5.37239 83.4336 5.35927 83.4664 5.35927H86.2817C86.7017 5.35927 87.0692 5.44458 87.3842 5.6152C87.7058 5.78583 87.9519 6.02864 88.1225 6.34364C88.2997 6.65864 88.3883 7.02285 88.3883 7.43629C88.3883 7.88254 88.2767 8.26644 88.0536 8.58801C87.8305 8.903 87.5188 9.12613 87.1185 9.25738C87.0856 9.2705 87.0758 9.29347 87.0889 9.32628L88.4277 12.1121C88.4408 12.1383 88.4474 12.158 88.4474 12.1711C88.4474 12.2236 88.4113 12.2499 88.3391 12.2499H87.1283ZM84.7855 6.55036C84.7527 6.55036 84.7363 6.56676 84.7363 6.59958V8.28285C84.7363 8.31566 84.7527 8.33207 84.7855 8.33207H86.075C86.3506 8.33207 86.5738 8.25004 86.7444 8.08598C86.9216 7.92191 87.0102 7.70863 87.0102 7.44613C87.0102 7.18364 86.9216 6.97036 86.7444 6.80629C86.5738 6.63567 86.3506 6.55036 86.075 6.55036H84.7855Z" fill="white"/>
<path d="M96.5023 5.35927C96.5351 5.35927 96.5613 5.37239 96.581 5.39864C96.6073 5.41833 96.6204 5.44458 96.6204 5.47739V6.44208C96.6204 6.47489 96.6073 6.50442 96.581 6.53067C96.5613 6.55036 96.5351 6.5602 96.5023 6.5602H94.7403C94.7074 6.5602 94.691 6.57661 94.691 6.60942V12.1317C94.691 12.1646 94.6779 12.1941 94.6517 12.2203C94.632 12.24 94.6057 12.2499 94.5729 12.2499H93.4212C93.3884 12.2499 93.3589 12.24 93.3326 12.2203C93.3129 12.1941 93.3031 12.1646 93.3031 12.1317V6.60942C93.3031 6.57661 93.2867 6.5602 93.2539 6.5602H91.5411C91.5082 6.5602 91.4787 6.55036 91.4525 6.53067C91.4328 6.50442 91.4229 6.47489 91.4229 6.44208V5.47739C91.4229 5.44458 91.4328 5.41833 91.4525 5.39864C91.4787 5.37239 91.5082 5.35927 91.5411 5.35927H96.5023Z" fill="white"/>
<path d="M99.9866 12.2499C99.9538 12.2499 99.9242 12.24 99.898 12.2203C99.8783 12.1941 99.8685 12.1646 99.8685 12.1317V5.47739C99.8685 5.44458 99.8783 5.41833 99.898 5.39864C99.9242 5.37239 99.9538 5.35927 99.9866 5.35927H101.138C101.171 5.35927 101.197 5.37239 101.217 5.39864C101.243 5.41833 101.256 5.44458 101.256 5.47739V12.1317C101.256 12.1646 101.243 12.1941 101.217 12.2203C101.197 12.24 101.171 12.2499 101.138 12.2499H99.9866Z" fill="white"/>
<path d="M107.317 12.3286C106.812 12.3286 106.366 12.2302 105.978 12.0333C105.598 11.8364 105.299 11.5608 105.083 11.2064C104.873 10.8455 104.768 10.4321 104.768 9.96613V5.47739C104.768 5.44458 104.777 5.41833 104.797 5.39864C104.823 5.37239 104.853 5.35927 104.886 5.35927H106.037C106.07 5.35927 106.097 5.37239 106.116 5.39864C106.142 5.41833 106.156 5.44458 106.156 5.47739V9.97597C106.156 10.3238 106.261 10.606 106.471 10.8225C106.687 11.0325 106.969 11.1375 107.317 11.1375C107.665 11.1375 107.944 11.0325 108.154 10.8225C108.37 10.606 108.479 10.3238 108.479 9.97597V5.47739C108.479 5.44458 108.489 5.41833 108.508 5.39864C108.534 5.37239 108.564 5.35927 108.597 5.35927H109.749C109.781 5.35927 109.808 5.37239 109.827 5.39864C109.854 5.41833 109.867 5.44458 109.867 5.47739V9.96613C109.867 10.4321 109.758 10.8455 109.542 11.2064C109.332 11.5608 109.033 11.8364 108.646 12.0333C108.265 12.2302 107.822 12.3286 107.317 12.3286Z" fill="white"/>
<path d="M117.8 5.43802C117.833 5.38552 117.879 5.35927 117.938 5.35927H119.089C119.122 5.35927 119.148 5.37239 119.168 5.39864C119.194 5.41833 119.207 5.44458 119.207 5.47739V12.1317C119.207 12.1646 119.194 12.1941 119.168 12.2203C119.148 12.24 119.122 12.2499 119.089 12.2499H117.938C117.905 12.2499 117.875 12.24 117.849 12.2203C117.829 12.1941 117.819 12.1646 117.819 12.1317V7.79066C117.819 7.76441 117.813 7.75129 117.8 7.75129C117.787 7.75129 117.774 7.76113 117.76 7.78082L116.717 9.41488C116.684 9.46738 116.638 9.49363 116.579 9.49363H115.998C115.939 9.49363 115.893 9.46738 115.861 9.41488L114.817 7.78082C114.804 7.76113 114.791 7.75457 114.778 7.76113C114.765 7.76113 114.758 7.77426 114.758 7.80051V12.1317C114.758 12.1646 114.745 12.1941 114.719 12.2203C114.699 12.24 114.673 12.2499 114.64 12.2499H113.488C113.455 12.2499 113.426 12.24 113.4 12.2203C113.38 12.1941 113.37 12.1646 113.37 12.1317V5.47739C113.37 5.44458 113.38 5.41833 113.4 5.39864C113.426 5.37239 113.455 5.35927 113.488 5.35927H114.64C114.699 5.35927 114.745 5.38552 114.778 5.43802L116.254 7.7316C116.274 7.77098 116.294 7.77098 116.313 7.7316L117.8 5.43802Z" fill="white"/>
<path d="M45.5233 17.5787C45.5233 17.6078 45.5116 17.6341 45.4883 17.6574C45.4708 17.6749 45.4474 17.6837 45.4183 17.6837H42.557C42.5279 17.6837 42.5133 17.6983 42.5133 17.7274V19.0837C42.5133 19.1128 42.5279 19.1274 42.557 19.1274H44.4383C44.4674 19.1274 44.4908 19.1391 44.5083 19.1624C44.5316 19.1799 44.5433 19.2033 44.5433 19.2324V20.0812C44.5433 20.1103 44.5316 20.1366 44.5083 20.1599C44.4908 20.1774 44.4674 20.1862 44.4383 20.1862H42.557C42.5279 20.1862 42.5133 20.2008 42.5133 20.2299V22.6449C42.5133 22.6741 42.5016 22.7003 42.4783 22.7237C42.4608 22.7412 42.4375 22.7499 42.4083 22.7499H41.3845C41.3554 22.7499 41.3291 22.7412 41.3058 22.7237C41.2883 22.7003 41.2795 22.6741 41.2795 22.6449V16.7299C41.2795 16.7008 41.2883 16.6774 41.3058 16.6599C41.3291 16.6366 41.3554 16.6249 41.3845 16.6249H45.4183C45.4474 16.6249 45.4708 16.6366 45.4883 16.6599C45.5116 16.6774 45.5233 16.7008 45.5233 16.7299V17.5787Z" fill="white"/>
<path d="M50.3484 22.7499C50.2901 22.7499 50.2522 22.7207 50.2347 22.6624L49.9722 21.8049C49.9605 21.7816 49.9459 21.7699 49.9284 21.7699H47.7759C47.7584 21.7699 47.7438 21.7816 47.7322 21.8049L47.4784 22.6624C47.4609 22.7207 47.423 22.7499 47.3647 22.7499H46.2534C46.2184 22.7499 46.1922 22.7412 46.1747 22.7237C46.1572 22.7003 46.1543 22.6682 46.1659 22.6274L48.0559 16.7124C48.0734 16.6541 48.1113 16.6249 48.1697 16.6249H49.5434C49.6017 16.6249 49.6397 16.6541 49.6572 16.7124L51.5471 22.6274C51.553 22.6391 51.5559 22.6537 51.5559 22.6712C51.5559 22.7237 51.5238 22.7499 51.4596 22.7499H50.3484ZM48.0472 20.7637C48.0413 20.7987 48.053 20.8162 48.0822 20.8162H49.6222C49.6572 20.8162 49.6688 20.7987 49.6572 20.7637L48.8697 18.1649C48.8638 18.1416 48.8551 18.1328 48.8434 18.1387C48.8317 18.1387 48.823 18.1474 48.8172 18.1649L48.0472 20.7637Z" fill="white"/>
<path d="M56.6475 22.7499C56.5892 22.7499 56.5483 22.7237 56.525 22.6712L55.4312 20.2474C55.4196 20.2241 55.4021 20.2124 55.3787 20.2124H54.565C54.5358 20.2124 54.5212 20.227 54.5212 20.2562V22.6449C54.5212 22.6741 54.5096 22.7003 54.4862 22.7237C54.4687 22.7412 54.4454 22.7499 54.4163 22.7499H53.3925C53.3633 22.7499 53.3371 22.7412 53.3138 22.7237C53.2963 22.7003 53.2875 22.6741 53.2875 22.6449V16.7299C53.2875 16.7008 53.2963 16.6774 53.3138 16.6599C53.3371 16.6366 53.3633 16.6249 53.3925 16.6249H55.895C56.2683 16.6249 56.595 16.7008 56.875 16.8524C57.1608 17.0041 57.3796 17.2199 57.5312 17.4999C57.6887 17.7799 57.7675 18.1037 57.7675 18.4712C57.7675 18.8678 57.6683 19.2091 57.47 19.4949C57.2717 19.7749 56.9946 19.9733 56.6387 20.0899C56.6096 20.1016 56.6008 20.122 56.6125 20.1512L57.8025 22.6274C57.8142 22.6507 57.82 22.6682 57.82 22.6799C57.82 22.7266 57.7879 22.7499 57.7237 22.7499H56.6475ZM54.565 17.6837C54.5358 17.6837 54.5212 17.6983 54.5212 17.7274V19.2237C54.5212 19.2528 54.5358 19.2674 54.565 19.2674H55.7112C55.9562 19.2674 56.1546 19.1945 56.3062 19.0487C56.4637 18.9028 56.5425 18.7133 56.5425 18.4799C56.5425 18.2466 56.4637 18.057 56.3062 17.9112C56.1546 17.7595 55.9562 17.6837 55.7112 17.6837H54.565Z" fill="white"/>
<path d="M63.5622 16.6949C63.5914 16.6483 63.6322 16.6249 63.6847 16.6249H64.7085C64.7376 16.6249 64.761 16.6366 64.7785 16.6599C64.8018 16.6774 64.8135 16.7008 64.8135 16.7299V22.6449C64.8135 22.6741 64.8018 22.7003 64.7785 22.7237C64.761 22.7412 64.7376 22.7499 64.7085 22.7499H63.6847C63.6556 22.7499 63.6293 22.7412 63.606 22.7237C63.5885 22.7003 63.5797 22.6741 63.5797 22.6449V18.7862C63.5797 18.7628 63.5739 18.7512 63.5622 18.7512C63.5506 18.7512 63.5389 18.7599 63.5272 18.7774L62.5997 20.2299C62.5706 20.2766 62.5297 20.2999 62.4772 20.2999H61.961C61.9085 20.2999 61.8676 20.2766 61.8385 20.2299L60.911 18.7774C60.8993 18.7599 60.8876 18.7541 60.876 18.7599C60.8643 18.7599 60.8585 18.7716 60.8585 18.7949V22.6449C60.8585 22.6741 60.8468 22.7003 60.8235 22.7237C60.806 22.7412 60.7826 22.7499 60.7535 22.7499H59.7297C59.7006 22.7499 59.6743 22.7412 59.651 22.7237C59.6335 22.7003 59.6247 22.6741 59.6247 22.6449V16.7299C59.6247 16.7008 59.6335 16.6774 59.651 16.6599C59.6743 16.6366 59.7006 16.6249 59.7297 16.6249H60.7535C60.806 16.6249 60.8468 16.6483 60.876 16.6949L62.1885 18.7337C62.206 18.7687 62.2235 18.7687 62.241 18.7337L63.5622 16.6949Z" fill="white"/>
<path d="M71.0946 17.5787C71.0946 17.6078 71.0829 17.6341 71.0596 17.6574C71.0421 17.6749 71.0187 17.6837 70.9896 17.6837H68.1196C68.0904 17.6837 68.0758 17.6983 68.0758 17.7274V19.0837C68.0758 19.1128 68.0904 19.1274 68.1196 19.1274H70.0008C70.03 19.1274 70.0533 19.1391 70.0708 19.1624C70.0942 19.1799 70.1058 19.2033 70.1058 19.2324V20.0812C70.1058 20.1103 70.0942 20.1366 70.0708 20.1599C70.0533 20.1774 70.03 20.1862 70.0008 20.1862H68.1196C68.0904 20.1862 68.0758 20.2008 68.0758 20.2299V21.6474C68.0758 21.6766 68.0904 21.6912 68.1196 21.6912H70.9896C71.0187 21.6912 71.0421 21.7028 71.0596 21.7262C71.0829 21.7437 71.0946 21.767 71.0946 21.7962V22.6449C71.0946 22.6741 71.0829 22.7003 71.0596 22.7237C71.0421 22.7412 71.0187 22.7499 70.9896 22.7499H66.9471C66.9179 22.7499 66.8917 22.7412 66.8683 22.7237C66.8508 22.7003 66.8421 22.6741 66.8421 22.6449V16.7299C66.8421 16.7008 66.8508 16.6774 66.8683 16.6599C66.8917 16.6366 66.9179 16.6249 66.9471 16.6249H70.9896C71.0187 16.6249 71.0421 16.6366 71.0596 16.6599C71.0829 16.6774 71.0946 16.7008 71.0946 16.7299V17.5787Z" fill="white"/>
<path d="M76.2744 22.7499C76.2161 22.7499 76.1753 22.7237 76.1519 22.6712L75.0582 20.2474C75.0465 20.2241 75.029 20.2124 75.0057 20.2124H74.1919C74.1628 20.2124 74.1482 20.227 74.1482 20.2562V22.6449C74.1482 22.6741 74.1365 22.7003 74.1132 22.7237C74.0957 22.7412 74.0723 22.7499 74.0432 22.7499H73.0194C72.9903 22.7499 72.964 22.7412 72.9407 22.7237C72.9232 22.7003 72.9144 22.6741 72.9144 22.6449V16.7299C72.9144 16.7008 72.9232 16.6774 72.9407 16.6599C72.964 16.6366 72.9903 16.6249 73.0194 16.6249H75.5219C75.8953 16.6249 76.2219 16.7008 76.5019 16.8524C76.7877 17.0041 77.0065 17.2199 77.1582 17.4999C77.3157 17.7799 77.3944 18.1037 77.3944 18.4712C77.3944 18.8678 77.2952 19.2091 77.0969 19.4949C76.8986 19.7749 76.6215 19.9733 76.2657 20.0899C76.2365 20.1016 76.2278 20.122 76.2394 20.1512L77.4294 22.6274C77.4411 22.6507 77.4469 22.6682 77.4469 22.6799C77.4469 22.7266 77.4148 22.7499 77.3507 22.7499H76.2744ZM74.1919 17.6837C74.1628 17.6837 74.1482 17.6983 74.1482 17.7274V19.2237C74.1482 19.2528 74.1628 19.2674 74.1919 19.2674H75.3382C75.5832 19.2674 75.7815 19.1945 75.9332 19.0487C76.0907 18.9028 76.1694 18.7133 76.1694 18.4799C76.1694 18.2466 76.0907 18.057 75.9332 17.9112C75.7815 17.7595 75.5832 17.6837 75.3382 17.6837H74.1919Z" fill="white"/>
<path d="M81.3517 22.8199C80.885 22.8199 80.4767 22.747 80.1267 22.6012C79.7767 22.4495 79.5054 22.2366 79.3129 21.9624C79.1262 21.6824 79.0329 21.3587 79.0329 20.9912V20.7987C79.0329 20.7695 79.0417 20.7462 79.0592 20.7287C79.0825 20.7053 79.1087 20.6937 79.1379 20.6937H80.1354C80.1646 20.6937 80.1879 20.7053 80.2054 20.7287C80.2287 20.7462 80.2404 20.7695 80.2404 20.7987V20.9299C80.2404 21.1632 80.3483 21.3616 80.5642 21.5249C80.78 21.6824 81.0717 21.7612 81.4392 21.7612C81.7483 21.7612 81.9787 21.697 82.1304 21.5687C82.2821 21.4345 82.3579 21.2712 82.3579 21.0787C82.3579 20.9387 82.3112 20.822 82.2179 20.7287C82.1246 20.6295 81.9962 20.5449 81.8329 20.4749C81.6754 20.3991 81.4217 20.297 81.0717 20.1687C80.6808 20.0345 80.3483 19.8974 80.0742 19.7574C79.8058 19.6174 79.5783 19.4278 79.3917 19.1887C79.2108 18.9437 79.1204 18.6433 79.1204 18.2874C79.1204 17.9374 79.2108 17.6312 79.3917 17.3687C79.5725 17.1062 79.8233 16.9049 80.1442 16.7649C80.465 16.6249 80.8354 16.5549 81.2554 16.5549C81.6987 16.5549 82.0925 16.6337 82.4367 16.7912C82.7866 16.9487 83.0579 17.1703 83.2504 17.4562C83.4487 17.7362 83.5479 18.0628 83.5479 18.4362V18.5674C83.5479 18.5966 83.5362 18.6228 83.5129 18.6462C83.4954 18.6637 83.4721 18.6724 83.4429 18.6724H82.4367C82.4075 18.6724 82.3812 18.6637 82.3579 18.6462C82.3404 18.6228 82.3317 18.5966 82.3317 18.5674V18.4974C82.3317 18.2524 82.2296 18.0453 82.0254 17.8762C81.8271 17.7012 81.5529 17.6137 81.2029 17.6137C80.9287 17.6137 80.7129 17.672 80.5554 17.7887C80.4037 17.9053 80.3279 18.0658 80.3279 18.2699C80.3279 18.4158 80.3717 18.5383 80.4592 18.6374C80.5525 18.7366 80.6867 18.827 80.8617 18.9087C81.0425 18.9845 81.3196 19.0895 81.6929 19.2237C82.1071 19.3753 82.4308 19.5095 82.6642 19.6262C82.9033 19.7428 83.1162 19.9178 83.3029 20.1512C83.4954 20.3787 83.5916 20.6762 83.5916 21.0437C83.5916 21.592 83.3904 22.0266 82.9879 22.3474C82.5854 22.6624 82.04 22.8199 81.3517 22.8199Z" fill="white"/>
<path d="M93.7155 16.6249C93.7447 16.6249 93.768 16.6366 93.7855 16.6599C93.8089 16.6774 93.8205 16.7008 93.8205 16.7299V17.5874C93.8205 17.6166 93.8089 17.6428 93.7855 17.6662C93.768 17.6837 93.7447 17.6924 93.7155 17.6924H92.1493C92.1201 17.6924 92.1055 17.707 92.1055 17.7362V22.6449C92.1055 22.6741 92.0939 22.7003 92.0705 22.7237C92.053 22.7412 92.0297 22.7499 92.0005 22.7499H90.9768C90.9476 22.7499 90.9214 22.7412 90.898 22.7237C90.8805 22.7003 90.8718 22.6741 90.8718 22.6449V17.7362C90.8718 17.707 90.8572 17.6924 90.828 17.6924H89.3055C89.2764 17.6924 89.2501 17.6837 89.2268 17.6662C89.2093 17.6428 89.2005 17.6166 89.2005 17.5874V16.7299C89.2005 16.7008 89.2093 16.6774 89.2268 16.6599C89.2501 16.6366 89.2764 16.6249 89.3055 16.6249H93.7155Z" fill="white"/>
<path d="M98.9302 22.7499C98.8718 22.7499 98.831 22.7237 98.8077 22.6712L97.7139 20.2474C97.7023 20.2241 97.6848 20.2124 97.6614 20.2124H96.8477C96.8185 20.2124 96.8039 20.227 96.8039 20.2562V22.6449C96.8039 22.6741 96.7923 22.7003 96.7689 22.7237C96.7514 22.7412 96.7281 22.7499 96.6989 22.7499H95.6752C95.646 22.7499 95.6198 22.7412 95.5964 22.7237C95.5789 22.7003 95.5702 22.6741 95.5702 22.6449V16.7299C95.5702 16.7008 95.5789 16.6774 95.5964 16.6599C95.6198 16.6366 95.646 16.6249 95.6752 16.6249H98.1777C98.551 16.6249 98.8777 16.7008 99.1577 16.8524C99.4435 17.0041 99.6623 17.2199 99.8139 17.4999C99.9714 17.7799 100.05 18.1037 100.05 18.4712C100.05 18.8678 99.951 19.2091 99.7527 19.4949C99.5543 19.7749 99.2773 19.9733 98.9214 20.0899C98.8923 20.1016 98.8835 20.122 98.8952 20.1512L100.085 22.6274C100.097 22.6507 100.103 22.6682 100.103 22.6799C100.103 22.7266 100.071 22.7499 100.006 22.7499H98.9302ZM96.8477 17.6837C96.8185 17.6837 96.8039 17.6983 96.8039 17.7274V19.2237C96.8039 19.2528 96.8185 19.2674 96.8477 19.2674H97.9939C98.2389 19.2674 98.4373 19.1945 98.5889 19.0487C98.7464 18.9028 98.8252 18.7133 98.8252 18.4799C98.8252 18.2466 98.7464 18.057 98.5889 17.9112C98.4373 17.7595 98.2389 17.6837 97.9939 17.6837H96.8477Z" fill="white"/>
<path d="M105.929 22.7499C105.871 22.7499 105.833 22.7207 105.816 22.6624L105.553 21.8049C105.541 21.7816 105.527 21.7699 105.509 21.7699H103.357C103.339 21.7699 103.325 21.7816 103.313 21.8049L103.059 22.6624C103.042 22.7207 103.004 22.7499 102.946 22.7499H101.834C101.799 22.7499 101.773 22.7412 101.756 22.7237C101.738 22.7003 101.735 22.6682 101.747 22.6274L103.637 16.7124C103.654 16.6541 103.692 16.6249 103.751 16.6249H105.124C105.183 16.6249 105.221 16.6541 105.238 16.7124L107.128 22.6274C107.134 22.6391 107.137 22.6537 107.137 22.6712C107.137 22.7237 107.105 22.7499 107.041 22.7499H105.929ZM103.628 20.7637C103.622 20.7987 103.634 20.8162 103.663 20.8162H105.203C105.238 20.8162 105.25 20.7987 105.238 20.7637L104.451 18.1649C104.445 18.1416 104.436 18.1328 104.424 18.1387C104.413 18.1387 104.404 18.1474 104.398 18.1649L103.628 20.7637Z" fill="white"/>
<path d="M108.973 22.7499C108.944 22.7499 108.918 22.7412 108.895 22.7237C108.877 22.7003 108.868 22.6741 108.868 22.6449V16.7299C108.868 16.7008 108.877 16.6774 108.895 16.6599C108.918 16.6366 108.944 16.6249 108.973 16.6249H111.161C111.598 16.6249 111.98 16.7037 112.307 16.8612C112.64 17.0128 112.896 17.2287 113.077 17.5087C113.258 17.7887 113.348 18.1124 113.348 18.4799V20.8949C113.348 21.2624 113.258 21.5862 113.077 21.8662C112.896 22.1462 112.64 22.3649 112.307 22.5224C111.98 22.6741 111.598 22.7499 111.161 22.7499H108.973ZM110.102 21.6474C110.102 21.6766 110.117 21.6912 110.146 21.6912H111.205C111.473 21.6912 111.689 21.6007 111.852 21.4199C112.021 21.2391 112.109 20.997 112.115 20.6937V18.6812C112.115 18.3778 112.03 18.1358 111.861 17.9549C111.698 17.7741 111.476 17.6837 111.196 17.6837H110.146C110.117 17.6837 110.102 17.6983 110.102 17.7274V21.6474Z" fill="white"/>
<path d="M119.492 17.5787C119.492 17.6078 119.481 17.6341 119.457 17.6574C119.44 17.6749 119.416 17.6837 119.387 17.6837H116.517C116.488 17.6837 116.474 17.6983 116.474 17.7274V19.0837C116.474 19.1128 116.488 19.1274 116.517 19.1274H118.399C118.428 19.1274 118.451 19.1391 118.469 19.1624C118.492 19.1799 118.504 19.2033 118.504 19.2324V20.0812C118.504 20.1103 118.492 20.1366 118.469 20.1599C118.451 20.1774 118.428 20.1862 118.399 20.1862H116.517C116.488 20.1862 116.474 20.2008 116.474 20.2299V21.6474C116.474 21.6766 116.488 21.6912 116.517 21.6912H119.387C119.416 21.6912 119.44 21.7028 119.457 21.7262C119.481 21.7437 119.492 21.767 119.492 21.7962V22.6449C119.492 22.6741 119.481 22.7003 119.457 22.7237C119.44 22.7412 119.416 22.7499 119.387 22.7499H115.345C115.316 22.7499 115.289 22.7412 115.266 22.7237C115.249 22.7003 115.24 22.6741 115.24 22.6449V16.7299C115.24 16.7008 115.249 16.6774 115.266 16.6599C115.289 16.6366 115.316 16.6249 115.345 16.6249H119.387C119.416 16.6249 119.44 16.6366 119.457 16.6599C119.481 16.6774 119.492 16.7008 119.492 16.7299V17.5787Z" fill="white"/>
<path d="M43.4379 31.4997C43.3985 31.4997 43.3745 31.4801 43.3657 31.4407L43.2213 30.686C43.2213 30.6773 43.217 30.6707 43.2082 30.6663C43.2038 30.6619 43.1973 30.6598 43.1885 30.6598H42.1188C42.1101 30.6598 42.1013 30.6619 42.0926 30.6663C42.0882 30.6707 42.086 30.6773 42.086 30.686L41.9482 31.4407C41.9439 31.4801 41.9198 31.4997 41.876 31.4997H41.3773C41.3554 31.4997 41.3379 31.4932 41.3248 31.4801C41.316 31.4669 41.3139 31.4494 41.3182 31.4276L42.296 26.9651C42.3048 26.9257 42.3288 26.906 42.3682 26.906H42.9523C42.996 26.906 43.0201 26.9257 43.0245 26.9651L44.0088 31.4276V31.4407C44.0088 31.4801 43.9892 31.4997 43.9498 31.4997H43.4379ZM42.1976 30.1348C42.1976 30.1523 42.2042 30.161 42.2173 30.161H43.0901C43.1032 30.161 43.1098 30.1523 43.1098 30.1348L42.6635 27.8051C42.6592 27.7963 42.6548 27.7919 42.6504 27.7919C42.646 27.7919 42.6417 27.7963 42.6373 27.8051L42.1976 30.1348Z" fill="white"/>
<path d="M59.1586 27.3851C59.1586 27.4288 59.1367 27.4507 59.093 27.4507H57.623C57.6055 27.4507 57.5968 27.4595 57.5968 27.477V28.901C57.5968 28.9185 57.6055 28.9273 57.623 28.9273H58.5221C58.5658 28.9273 58.5877 28.9491 58.5877 28.9929V29.4063C58.5877 29.4501 58.5658 29.4719 58.5221 29.4719H57.623C57.6055 29.4719 57.5968 29.4807 57.5968 29.4982V31.4341C57.5968 31.4779 57.5749 31.4997 57.5311 31.4997H57.0324C56.9886 31.4997 56.9668 31.4779 56.9668 31.4341V26.9716C56.9668 26.9279 56.9886 26.906 57.0324 26.906H59.093C59.1367 26.906 59.1586 26.9279 59.1586 26.9716V27.3851Z" fill="white"/>
<path d="M73.9515 31.4997C73.9121 31.4997 73.8858 31.4822 73.8727 31.4472L73.269 29.4916C73.2646 29.4785 73.2558 29.4719 73.2427 29.4719H72.7833C72.7658 29.4719 72.7571 29.4807 72.7571 29.4982V31.4341C72.7571 31.4779 72.7352 31.4997 72.6915 31.4997H72.1927C72.149 31.4997 72.1271 31.4779 72.1271 31.4341V26.9716C72.1271 26.9279 72.149 26.906 72.1927 26.906H73.3674C73.5905 26.906 73.7874 26.9607 73.958 27.0701C74.1287 27.1795 74.2599 27.3348 74.3518 27.536C74.448 27.7329 74.4962 27.9582 74.4962 28.2119C74.4962 28.4876 74.4393 28.7282 74.3255 28.9338C74.2118 29.1351 74.0565 29.2816 73.8596 29.3735C73.8465 29.3866 73.8421 29.3998 73.8465 29.4129L74.5158 31.4276L74.5224 31.4538C74.5224 31.4844 74.5027 31.4997 74.4633 31.4997H73.9515ZM72.7833 27.4507C72.7658 27.4507 72.7571 27.4595 72.7571 27.477V28.9469C72.7571 28.9644 72.7658 28.9732 72.7833 28.9732H73.269C73.4483 28.9732 73.5927 28.9054 73.7021 28.7698C73.8115 28.6298 73.8662 28.446 73.8662 28.2185C73.8662 27.9823 73.8115 27.7963 73.7021 27.6607C73.5927 27.5207 73.4483 27.4507 73.269 27.4507H72.7833Z" fill="white"/>
<path d="M87.635 31.4997C87.5913 31.4997 87.5694 31.4779 87.5694 31.4341V26.9716C87.5694 26.9279 87.5913 26.906 87.635 26.906H88.1338C88.1775 26.906 88.1994 26.9279 88.1994 26.9716V31.4341C88.1994 31.4779 88.1775 31.4997 88.1338 31.4997H87.635Z" fill="white"/>
<path d="M102.569 31.5522C102.215 31.5522 101.929 31.4451 101.71 31.2307C101.495 31.0119 101.388 30.7232 101.388 30.3644V28.0348C101.388 27.676 101.495 27.3895 101.71 27.1751C101.929 26.9607 102.215 26.8535 102.569 26.8535C102.928 26.8535 103.215 26.9607 103.429 27.1751C103.648 27.3895 103.757 27.676 103.757 28.0348V28.1398C103.757 28.1835 103.735 28.2054 103.692 28.2054L103.193 28.2316C103.149 28.2316 103.127 28.2098 103.127 28.166V27.9954C103.127 27.816 103.075 27.6716 102.97 27.5623C102.869 27.4529 102.736 27.3982 102.569 27.3982C102.403 27.3982 102.27 27.4529 102.169 27.5623C102.069 27.6716 102.018 27.816 102.018 27.9954V30.4104C102.018 30.5898 102.069 30.7341 102.169 30.8435C102.27 30.9529 102.403 31.0076 102.569 31.0076C102.736 31.0076 102.869 30.9529 102.97 30.8435C103.075 30.7341 103.127 30.5898 103.127 30.4104V30.2398C103.127 30.196 103.149 30.1741 103.193 30.1741L103.692 30.2004C103.735 30.2004 103.757 30.2223 103.757 30.266V30.3644C103.757 30.7232 103.648 31.0119 103.429 31.2307C103.215 31.4451 102.928 31.5522 102.569 31.5522Z" fill="white"/>
<path d="M118.676 31.4997C118.636 31.4997 118.612 31.4801 118.603 31.4407L118.459 30.686C118.459 30.6773 118.455 30.6707 118.446 30.6663C118.442 30.6619 118.435 30.6598 118.426 30.6598H117.357C117.348 30.6598 117.339 30.6619 117.33 30.6663C117.326 30.6707 117.324 30.6773 117.324 30.686L117.186 31.4407C117.182 31.4801 117.158 31.4997 117.114 31.4997H116.615C116.593 31.4997 116.576 31.4932 116.563 31.4801C116.554 31.4669 116.552 31.4494 116.556 31.4276L117.534 26.9651C117.543 26.9257 117.567 26.906 117.606 26.906H118.19C118.234 26.906 118.258 26.9257 118.262 26.9651L119.247 31.4276V31.4407C119.247 31.4801 119.227 31.4997 119.188 31.4997H118.676ZM117.435 30.1348C117.435 30.1523 117.442 30.161 117.455 30.161H118.328C118.341 30.161 118.348 30.1523 118.348 30.1348L117.901 27.8051C117.897 27.7963 117.893 27.7919 117.888 27.7919C117.884 27.7919 117.879 27.7963 117.875 27.8051L117.435 30.1348Z" fill="white"/>
</svg>
