<svg width="30" height="30" viewBox="0 0 30 30" fill="none" xmlns="http://www.w3.org/2000/svg">
<mask id="mask0_205_549" style="mask-type:alpha" maskUnits="userSpaceOnUse" x="0" y="0" width="30" height="30">
<path d="M30 15C21.7158 15 15.0001 21.7157 15.0001 29.9999L30 29.9999L30 15Z" fill="#D9D9D9"/>
<path d="M14.9999 15C23.2841 15 29.9998 8.28429 29.9998 8.58307e-05L14.9999 8.58307e-05L14.9999 15Z" fill="#D9D9D9"/>
<path d="M0 0.000244141C-3.62114e-07 8.28445 6.71571 15.0001 14.9999 15.0001L14.9999 0.000244796L0 0.000244141Z" fill="#D9D9D9"/>
<path d="M14.9999 29.9998C14.9999 21.7156 8.2842 14.9998 -1.72848e-06 14.9998L-1.90735e-06 29.9998L14.9999 29.9998Z" fill="#D9D9D9"/>
</mask>
<g mask="url(#mask0_205_549)">
<rect width="30" height="30" fill="url(#paint0_linear_205_549)"/>
</g>
<defs>
<linearGradient id="paint0_linear_205_549" x1="30" y1="-1.78814e-06" x2="1.78814e-06" y2="30" gradientUnits="userSpaceOnUse">
<stop stop-color="#D9D9D9"/>
<stop offset="1" stop-color="white"/>
</linearGradient>
</defs>
</svg>
