<svg width="480" height="480" viewBox="0 0 480 480" fill="none" xmlns="http://www.w3.org/2000/svg">
<g style="mix-blend-mode:luminosity" opacity="0.05">
<path d="M180 360C213.137 360 240 333.137 240 300H180L180 360Z" fill="#A2B86C"/>
<path d="M180 360C146.863 360 120 386.863 120 420L180 420L180 360Z" fill="#A2B86C"/>
<path d="M240 480C240 446.863 213.137 420 180 420L180 480L240 480Z" fill="#A2B86C"/>
<path d="M59.9998 300C93.1367 300 119.999 273.138 119.999 240.001H59.9998L59.9998 300Z" fill="#A2B86C"/>
<path d="M120 420C120 386.863 93.1375 360 60.0005 360L60.0005 420L120 420Z" fill="#A2B86C"/>
<path d="M59.9998 480C93.1367 480 119.999 453.137 119.999 420H59.9998L59.9998 480Z" fill="#A2B86C"/>
<path d="M0 300C-1.44846e-06 333.137 26.8628 360 59.9997 360L59.9997 300L0 300Z" fill="#A2B86C"/>
<path d="M239.999 240C206.862 240 179.999 266.863 179.999 300L239.999 300L239.999 240Z" fill="#EF8B2C"/>
<path d="M180 300C180 266.863 153.137 240 120 240L120 300L180 300Z" fill="#EF8B2C"/>
<path d="M240 420C240 386.863 213.137 360 180 360L180 420L240 420Z" fill="#EF8B2C"/>
<path d="M60.0005 360C93.1374 360 120 333.137 120 300H60.0005L60.0005 360Z" fill="#EF8B2C"/>
<path d="M59.9998 360C26.8628 360 5.10573e-05 386.863 4.81604e-05 420L59.9998 420L59.9998 360Z" fill="#EF8B2C"/>
</g>
<g style="mix-blend-mode:luminosity" opacity="0.05">
<path d="M180 120C213.137 120 240 93.1372 240 60.0003L180 60.0003L180 120Z" fill="#A2B86C"/>
<path d="M180 120C146.863 120 120 146.863 120 180L180 180L180 120Z" fill="#A2B86C"/>
<path d="M240 240C240 206.863 213.137 180 180 180L180 240L240 240Z" fill="#A2B86C"/>
<path d="M59.9998 60.0005C93.1367 60.0005 119.999 33.1376 119.999 0.000652313L59.9998 0.000652313L59.9998 60.0005Z" fill="#A2B86C"/>
<path d="M120 180C120 146.863 93.1375 120 60.0005 120L60.0005 180L120 180Z" fill="#A2B86C"/>
<path d="M59.9998 240C93.1367 240 119.999 213.137 119.999 180H59.9998L59.9998 240Z" fill="#A2B86C"/>
<path d="M0 60C-1.44846e-06 93.1369 26.8628 120 59.9997 120L59.9997 60L0 60Z" fill="#A2B86C"/>
<path d="M239.999 0C206.862 -2.89692e-06 179.999 26.8628 179.999 59.9997L239.999 59.9997L239.999 0Z" fill="#EF8B2C"/>
<path d="M180 60C180 26.8631 153.137 0.000302535 120 0.000303984L120 60L180 60Z" fill="#EF8B2C"/>
<path d="M240 180C240 146.863 213.137 120 180 120L180 180L240 180Z" fill="#EF8B2C"/>
<path d="M60.0005 120C93.1374 120 120 93.1366 120 59.9997L60.0005 59.9997L60.0005 120Z" fill="#EF8B2C"/>
<path d="M59.9998 120C26.8628 120 5.10573e-05 146.863 4.81604e-05 180L59.9998 180L59.9998 120Z" fill="#EF8B2C"/>
</g>
<g style="mix-blend-mode:luminosity" opacity="0.05">
<path d="M420 360C453.137 360 480 333.137 480 300H420L420 360Z" fill="#A2B86C"/>
<path d="M420 360C386.863 360 360 386.863 360 420L420 420L420 360Z" fill="#A2B86C"/>
<path d="M480 480C480 446.863 453.138 420 420.001 420L420.001 480L480 480Z" fill="#A2B86C"/>
<path d="M300 300C333.137 300 359.999 273.138 359.999 240.001H300L300 300Z" fill="#A2B86C"/>
<path d="M360 420C360 386.863 333.137 360 300 360L300 420L360 420Z" fill="#A2B86C"/>
<path d="M300 480C333.137 480 359.999 453.137 359.999 420H300L300 480Z" fill="#A2B86C"/>
<path d="M240 300C240 333.137 266.863 360 300 360L300 300L240 300Z" fill="#A2B86C"/>
<path d="M479.999 240C446.862 240 419.999 266.863 419.999 300L479.999 300L479.999 240Z" fill="#EF8B2C"/>
<path d="M420 300C420 266.863 393.137 240 360 240L360 300L420 300Z" fill="#EF8B2C"/>
<path d="M480 420C480 386.863 453.137 360 420 360L420 420L480 420Z" fill="#EF8B2C"/>
<path d="M300 360C333.137 360 360 333.137 360 300H300V360Z" fill="#EF8B2C"/>
<path d="M300 360C266.863 360 240 386.863 240 420L300 420L300 360Z" fill="#EF8B2C"/>
</g>
</svg>
