<svg width="30" height="30" viewBox="0 0 30 30" fill="none" xmlns="http://www.w3.org/2000/svg">
<mask id="mask0_274_1082" style="mask-type:alpha" maskUnits="userSpaceOnUse" x="0" y="0" width="30" height="30">
<path d="M15 15C23.2843 15 30 21.7157 30 30L15 30L15 15Z" fill="#D9D9D9"/>
<path d="M30 0C21.7157 0 15 6.71573 15 15L30 15L30 0Z" fill="#D9D9D9"/>
<path d="M0 0C-3.62114e-07 8.2842 6.71571 14.9999 14.9999 14.9999L14.9999 6.55667e-07L0 0Z" fill="#D9D9D9"/>
<path d="M0 30C9.87889e-08 21.7157 6.71573 15 15 15L15 30L0 30Z" fill="#D9D9D9"/>
</mask>
<g mask="url(#mask0_274_1082)">
<rect y="-0.000488281" width="30" height="30" fill="url(#paint0_linear_274_1082)"/>
</g>
<defs>
<linearGradient id="paint0_linear_274_1082" x1="30" y1="-0.000490069" x2="1.78814e-06" y2="29.9995" gradientUnits="userSpaceOnUse">
<stop stop-color="#D9D9D9"/>
<stop offset="1" stop-color="#D9D9D9" stop-opacity="0"/>
</linearGradient>
</defs>
</svg>
