<svg width="30" height="30" viewBox="0 0 30 30" fill="none" xmlns="http://www.w3.org/2000/svg">
<mask id="mask0_274_1058" style="mask-type:alpha" maskUnits="userSpaceOnUse" x="0" y="0" width="30" height="30">
<path d="M30 15C21.7158 15 15.0001 21.7157 15.0001 29.9999L30 29.9999L30 15Z" fill="#D9D9D9"/>
<path d="M30 15C21.7157 15 15 8.28427 15 0L30 0L30 15Z" fill="#D9D9D9"/>
<path d="M0 0.000488281C-3.62114e-07 8.28469 6.71571 15.0004 14.9999 15.0004L14.9999 0.000488937L0 0.000488281Z" fill="#D9D9D9"/>
<path d="M0 30C9.87889e-08 21.7157 6.71573 15 15 15L15 30L0 30Z" fill="#D9D9D9"/>
</mask>
<g mask="url(#mask0_274_1058)">
<rect width="30" height="30" fill="url(#paint0_linear_274_1058)"/>
</g>
<defs>
<linearGradient id="paint0_linear_274_1058" x1="30" y1="-1.78814e-06" x2="1.78814e-06" y2="30" gradientUnits="userSpaceOnUse">
<stop stop-color="#D9D9D9"/>
<stop offset="1" stop-color="#D9D9D9" stop-opacity="0"/>
</linearGradient>
</defs>
</svg>
