<svg width="30" height="30" viewBox="0 0 30 30" fill="none" xmlns="http://www.w3.org/2000/svg">
<mask id="mask0_274_1046" style="mask-type:alpha" maskUnits="userSpaceOnUse" x="0" y="0" width="30" height="30">
<path d="M30 15V15C21.7158 15 15.0001 21.7157 15.0001 29.9999V29.9999L30 29.9999L30 15Z" fill="#D9D9D9"/>
<path d="M15 15V15C23.2842 15 29.9999 8.28429 29.9999 8.58307e-05V8.58307e-05L15 8.58307e-05L15 15Z" fill="#D9D9D9"/>
<path d="M0 0.000488281V0.000488281C-3.62114e-07 8.28469 6.71571 15.0004 14.9999 15.0004V15.0004L14.9999 0.000488937L0 0.000488281Z" fill="#D9D9D9"/>
<path d="M15 30V30C15 21.7158 8.28432 15.0001 0.000120342 15.0001V15.0001L0.000120163 30L15 30Z" fill="#D9D9D9"/>
</mask>
<g mask="url(#mask0_274_1046)">
<rect width="30" height="30" fill="url(#paint0_linear_274_1046)"/>
</g>
<defs>
<linearGradient id="paint0_linear_274_1046" x1="30" y1="-1.78814e-06" x2="1.78814e-06" y2="30" gradientUnits="userSpaceOnUse">
<stop stop-color="#D9D9D9"/>
<stop offset="1" stop-color="#D9D9D9" stop-opacity="0"/>
</linearGradient>
</defs>
</svg>
